# xmcd CD database file
#
# Track frame offsets:
#	150
#	18977
#	37682
#	53959
#	73461
#	90338
#	107665
#	129079
#	144456
#	159233
#
# Disc length: 2376 seconds
#
# Revision: 0
# Processed by: cddbd v1.5.1PL2 Copyright (c) Steve Scherf et al.
# Submitted via: CDex 1.60beta1
#
DISCID=7609460a
DTITLE=L'ARCHANGE - テンノサカヅキ
DYEAR=1900
DGENRE=ゲーム
TTITLE0=ILLUSION(THIS ILLUSION)
TTITLE1=Unlimited Blade Works(エミヤ)
TTITLE2=SHINE(日差しの中で）
TTITLE3=Excalibur(約束された勝利の剣）
TTITLE4=Nine Lives Blade Works(エミヤ#2)
TTITLE5=AKANE(茜色の街）
TTITLE6=Darkness(光と闇）
TTITLE7=Destiny(運命の渦）
TTITLE8=WISH(消えない思い）
TTITLE9=DAWN(繭）
EXTD=
EXTT0=
EXTT1=
EXTT2=
EXTT3=
EXTT4=
EXTT5=
EXTT6=
EXTT7=
EXTT8=
EXTT9=
PLAYORDER=
